<svg width="32" height="32" viewBox="0 0 32 32" fill="none" xmlns="http://www.w3.org/2000/svg">
<g clip-path="url(#clip0_891_15972)">
<path d="M32 0.0435486H0V31.9564H32V0.0435486Z" fill="#373435"/>
<path fill-rule="evenodd" clip-rule="evenodd" d="M15.4 1.76858C15.6 1.98421 15.8 1.98421 16.2 2.19984C15.8 2.63109 15.8 2.63109 15.8 3.49361C15.8 3.92486 15.8 4.57174 15.8 5.21863C15.8 6.51239 16 8.8843 16.2 10.1781C16.2 10.6093 16.4 11.4718 16.4 11.6875C16.4 11.9031 16.2 12.3343 16.2 13.1969C16.2 14.275 16.2 14.4906 16.2 15.5688C16.2 15.7844 16.2 16 16 16.2156C15.8 16.2156 15.8 16.2156 15.6 16.2156C15.4 15.5688 15.8 13.6281 15.8 12.3343C15.8 12.1187 15.8 11.9031 15.6 11.6875C15.4 11.6875 15.4 11.6875 15.4 11.9031C15.4 12.1187 15.4 12.1187 15.4 12.3343C15.2 13.4125 15.4 14.9219 15 15.7844C15 16 15 16 14.8 16C14.4 16.2156 13.8 16 13.8 16.6469C14.2 16.8625 14.2 16.8625 14.8 16.8625C14.8 17.725 14.6 18.8032 14.2 19.4501C14 19.8813 13.8 20.7438 13.6 21.1751C13.6 21.3907 13.6 21.6063 13.8 21.822C14 21.822 14 21.822 14 21.6063C14.4 21.1751 14.6 19.8813 14.6 19.2344C14.6 18.5875 14.8 17.725 15 17.0781C15 16.8625 15 16.8625 15.6 16.8625C15.6 17.725 15.4 19.2344 15 20.0969C14.8 20.9594 14.6 21.1751 14.8 21.822C15 21.822 15 21.822 15.2 21.6063C15.4 21.1751 15.4 20.3126 15.6 19.8813L16 17.2938C16 17.725 16.2 19.2344 16.2 19.8813C16.4 20.5282 16.4 21.822 17 21.822C17.4 20.9594 17 20.3126 16.8 19.4501L16.4 17.2938C16.4 16.8625 16.4 16.8625 16.4 16.6469H16.6C16.6 16.8625 16.8 16.8625 16.8 17.2938C17 18.3719 17.6 20.7438 18 21.3907C18.2 21.6063 18.2 21.3907 18.2 21.1751C18.2 20.5282 18 19.6657 18 19.2344C17.8 18.5875 17.6 17.2938 17.6 16.6469C17.8 16.6469 18.2 16.6469 18.4 16.6469C18.6 16.6469 18.6 16.6469 18.8 16.6469C19 16.6469 19 16.6469 19.2 16.6469V16.4313C19 16.4313 19 16.2156 18.4 16.2156H17.8C17.6 16.2156 17.8 16.2156 17.6 16.2156C17.6 15.5688 17.2 12.7656 17 11.4718V10.1781C17 9.09992 16.8 7.80616 16.8 6.72802C16.8 6.51239 16.8 6.51239 16.8 6.29677C16.8 5.003 17.2 2.84672 16.8 1.98421C17 1.98421 17.4 1.98421 17.4 1.76858C17.6 1.55296 17.6 1.33733 17.4 1.1217C16.8 0.906073 15.6 1.1217 15.4 1.55296V1.76858Z" fill="#FEFEFE"/>
<path fill-rule="evenodd" clip-rule="evenodd" d="M12 30.2314V30.8783C13 30.8783 13 30.2314 13.2 29.8002C13.8 28.9377 14.4 27.4283 15.6 27.4283C16.4 27.4283 17 27.4283 17.8 28.0751C18 28.2908 18 28.2908 18.2 28.5064C19.2 29.3689 18.6 30.4471 19.6 30.4471C19.8 30.4471 20 30.4471 20 30.2314C20.6 29.8002 19.6 28.2908 19.2 27.8595L19 27.6439C18.4 26.997 17.2 26.3501 16.2 26.3501C15.4 26.3501 15 26.3501 14.2 26.7814C13.4 27.2126 13.2 27.6439 12.8 28.2908C12.8 28.5064 12.8 28.5064 12.6 28.722C12.6 28.722 12.6 28.722 12.6 28.9377C12.4 29.3689 12.4 29.5845 12 30.2314C12 30.2314 12 30.4471 12 30.6627V30.2314Z" fill="#FEFEFE"/>
<path fill-rule="evenodd" clip-rule="evenodd" d="M12 24.8407C12 25.0564 12.2 25.0564 12.4 25.272C13.2 25.4876 14.8 25.272 15.6 25.0564C16.4 24.8407 17.8 24.6251 18.6 24.6251C18.8 24.6251 19.2 24.4095 19.4 24.4095C19.4 24.4095 19.4 24.4095 19.2 24.1939C18.8 23.9782 15.2 24.1939 14.8 24.1939C14.6 24.1939 14.6 24.1939 14.4 24.1939C14.2 24.1939 14.2 24.1939 14 24.1939H13.2C13 24.1939 12.6 24.1939 12.6 24.4095C12.4 24.4095 12.2 24.8407 12.2 24.8407H12Z" fill="#FEFEFE"/>
<path fill-rule="evenodd" clip-rule="evenodd" d="M9.59998 30.2314C9.59998 31.3096 10.6 30.4471 11 30.0158L11.2 29.8002C11.6 29.3689 12.6 26.7814 12.6 26.3501C12 26.5658 12 26.7814 11.4 27.6439C11.2 27.8595 11.2 27.8595 11 28.0751C10.6 28.722 10.4 28.9377 9.99998 29.5845C9.99998 29.8002 9.79998 30.0158 9.79998 30.2314H9.59998Z" fill="#FEFEFE"/>
<path fill-rule="evenodd" clip-rule="evenodd" d="M19.2 25.272C19.2 26.1345 20.4 27.6439 21 28.5064L21.2 28.722C21.4 29.1533 21.6 29.8002 22 29.8002H22.2C22.4 29.3689 22.2 28.722 22.2 28.5064C22 27.8595 21.4 27.4283 21 26.997C20.8 26.7814 20.8 26.5657 20.4 26.3501H20.2C20.2 26.3501 20.2 26.3501 20 26.1345C19.8 25.9189 19.6 25.7032 19.4 25.4876C19.2 25.272 19.2 25.272 19 25.4876L19.2 25.272Z" fill="#FEFEFE"/>
<path fill-rule="evenodd" clip-rule="evenodd" d="M13 23.7626C13.2 23.7626 13.4 23.7626 13.6 23.7626H14.2C15.4 23.547 17.2 23.3314 18.4 23.3314C18.8 23.3314 19.4 23.547 19.6 23.1157C19.2 22.4688 16.8 22.9001 16.4 22.9001C15.8 22.9001 15.2 23.1157 14.8 23.3314L13.6 23.547H13.4C13.2 23.547 13.4 23.547 13.2 23.547L13 23.7626Z" fill="#FEFEFE"/>
<path fill-rule="evenodd" clip-rule="evenodd" d="M12.8 22.4688C13 22.4688 13 22.6845 13.2 22.6845C14 22.9001 15.8 22.4688 16.6 22.4688C17 22.4688 17.8 22.2532 18 22.2532C18.4 22.2532 19 22.2532 19.2 21.8219C19 21.6063 16.4 22.0376 16 22.0376C15.4 22.0376 14.8 22.0376 14.2 22.0376C14 22.0376 13 22.0376 12.8 22.2532C12.8 22.2532 12.8 22.2532 12.6 22.4688H12.8Z" fill="#FEFEFE"/>
</g>
<defs>
<clipPath id="clip0_891_15972">
<rect width="32" height="32" fill="white"/>
</clipPath>
</defs>
</svg>
